<mxfile host="Electron" agent="Mozilla/5.0 (Windows NT 10.0; Win64; x64) AppleWebKit/537.36 (KHTML, like Gecko) draw.io/25.0.2 Chrome/128.0.6613.186 Electron/32.2.5 Safari/537.36" version="25.0.2">
  <diagram name="Página-1" id="IdYj4PHfRD9Y67LMF860">
    <mxGraphModel dx="1400" dy="1997" grid="1" gridSize="10" guides="1" tooltips="1" connect="1" arrows="1" fold="1" page="1" pageScale="1" pageWidth="827" pageHeight="1169" math="0" shadow="0">
      <root>
        <mxCell id="0" />
        <mxCell id="1" parent="0" />
        <mxCell id="o7d9FONO0-shs_CGMPCb-12" style="rounded=0;orthogonalLoop=1;jettySize=auto;html=1;exitX=0.5;exitY=0.5;exitDx=0;exitDy=0;exitPerimeter=0;entryX=0;entryY=0.5;entryDx=0;entryDy=0;endArrow=none;endFill=0;" edge="1" parent="1" source="o7d9FONO0-shs_CGMPCb-1" target="o7d9FONO0-shs_CGMPCb-4">
          <mxGeometry relative="1" as="geometry" />
        </mxCell>
        <mxCell id="o7d9FONO0-shs_CGMPCb-1" value="Operador" style="shape=umlActor;verticalLabelPosition=bottom;verticalAlign=top;html=1;outlineConnect=0;" vertex="1" parent="1">
          <mxGeometry x="30" y="260" width="30" height="60" as="geometry" />
        </mxCell>
        <mxCell id="o7d9FONO0-shs_CGMPCb-18" style="rounded=0;orthogonalLoop=1;jettySize=auto;html=1;exitX=1;exitY=0.5;exitDx=0;exitDy=0;entryX=0;entryY=0.5;entryDx=0;entryDy=0;dashed=1;" edge="1" parent="1" source="o7d9FONO0-shs_CGMPCb-4" target="o7d9FONO0-shs_CGMPCb-17">
          <mxGeometry relative="1" as="geometry" />
        </mxCell>
        <mxCell id="o7d9FONO0-shs_CGMPCb-19" value="&amp;lt;&amp;lt; include &amp;gt;&amp;gt;" style="edgeLabel;html=1;align=center;verticalAlign=middle;resizable=0;points=[];" vertex="1" connectable="0" parent="o7d9FONO0-shs_CGMPCb-18">
          <mxGeometry x="0.1" y="-1" relative="1" as="geometry">
            <mxPoint as="offset" />
          </mxGeometry>
        </mxCell>
        <mxCell id="o7d9FONO0-shs_CGMPCb-4" value="Inscripcion maquina" style="ellipse;whiteSpace=wrap;html=1;" vertex="1" parent="1">
          <mxGeometry x="160" y="-40" width="120" height="80" as="geometry" />
        </mxCell>
        <mxCell id="o7d9FONO0-shs_CGMPCb-6" value="Ingreso plantilla" style="ellipse;whiteSpace=wrap;html=1;" vertex="1" parent="1">
          <mxGeometry x="160" y="110" width="120" height="80" as="geometry" />
        </mxCell>
        <mxCell id="o7d9FONO0-shs_CGMPCb-7" value="Ingreso salida" style="ellipse;whiteSpace=wrap;html=1;" vertex="1" parent="1">
          <mxGeometry x="160" y="240" width="120" height="80" as="geometry" />
        </mxCell>
        <mxCell id="o7d9FONO0-shs_CGMPCb-8" value="Ingreso Llegada" style="ellipse;whiteSpace=wrap;html=1;" vertex="1" parent="1">
          <mxGeometry x="160" y="390" width="120" height="80" as="geometry" />
        </mxCell>
        <mxCell id="o7d9FONO0-shs_CGMPCb-9" value="Consulta S/L" style="ellipse;whiteSpace=wrap;html=1;" vertex="1" parent="1">
          <mxGeometry x="260" y="575" width="120" height="80" as="geometry" />
        </mxCell>
        <mxCell id="o7d9FONO0-shs_CGMPCb-11" style="rounded=0;orthogonalLoop=1;jettySize=auto;html=1;exitX=0.5;exitY=0.5;exitDx=0;exitDy=0;exitPerimeter=0;entryX=0;entryY=0.5;entryDx=0;entryDy=0;endArrow=none;endFill=0;" edge="1" parent="1" source="o7d9FONO0-shs_CGMPCb-10" target="o7d9FONO0-shs_CGMPCb-9">
          <mxGeometry relative="1" as="geometry" />
        </mxCell>
        <mxCell id="o7d9FONO0-shs_CGMPCb-10" value="Usuario" style="shape=umlActor;verticalLabelPosition=bottom;verticalAlign=top;html=1;outlineConnect=0;" vertex="1" parent="1">
          <mxGeometry x="40" y="585" width="30" height="60" as="geometry" />
        </mxCell>
        <mxCell id="o7d9FONO0-shs_CGMPCb-13" style="rounded=0;orthogonalLoop=1;jettySize=auto;html=1;exitX=0.5;exitY=0.5;exitDx=0;exitDy=0;exitPerimeter=0;entryX=0;entryY=0.5;entryDx=0;entryDy=0;endArrow=none;endFill=0;" edge="1" parent="1" source="o7d9FONO0-shs_CGMPCb-1" target="o7d9FONO0-shs_CGMPCb-6">
          <mxGeometry relative="1" as="geometry">
            <mxPoint x="55" y="300" as="sourcePoint" />
            <mxPoint x="180" y="60" as="targetPoint" />
          </mxGeometry>
        </mxCell>
        <mxCell id="o7d9FONO0-shs_CGMPCb-14" style="rounded=0;orthogonalLoop=1;jettySize=auto;html=1;exitX=0.5;exitY=0.5;exitDx=0;exitDy=0;exitPerimeter=0;entryX=0;entryY=0.5;entryDx=0;entryDy=0;endArrow=none;endFill=0;" edge="1" parent="1" source="o7d9FONO0-shs_CGMPCb-1" target="o7d9FONO0-shs_CGMPCb-7">
          <mxGeometry relative="1" as="geometry">
            <mxPoint x="65" y="310" as="sourcePoint" />
            <mxPoint x="190" y="70" as="targetPoint" />
          </mxGeometry>
        </mxCell>
        <mxCell id="o7d9FONO0-shs_CGMPCb-15" style="rounded=0;orthogonalLoop=1;jettySize=auto;html=1;exitX=0.5;exitY=0.5;exitDx=0;exitDy=0;exitPerimeter=0;entryX=0;entryY=0.5;entryDx=0;entryDy=0;endArrow=none;endFill=0;" edge="1" parent="1" source="o7d9FONO0-shs_CGMPCb-1" target="o7d9FONO0-shs_CGMPCb-8">
          <mxGeometry relative="1" as="geometry">
            <mxPoint x="75" y="320" as="sourcePoint" />
            <mxPoint x="200" y="80" as="targetPoint" />
          </mxGeometry>
        </mxCell>
        <mxCell id="o7d9FONO0-shs_CGMPCb-16" value="Sistema" style="shape=umlActor;verticalLabelPosition=bottom;verticalAlign=top;html=1;outlineConnect=0;" vertex="1" parent="1">
          <mxGeometry x="1110" y="400" width="30" height="60" as="geometry" />
        </mxCell>
        <mxCell id="o7d9FONO0-shs_CGMPCb-17" value="Ingresar datos autobus" style="ellipse;whiteSpace=wrap;html=1;" vertex="1" parent="1">
          <mxGeometry x="370" y="-40" width="120" height="80" as="geometry" />
        </mxCell>
        <mxCell id="o7d9FONO0-shs_CGMPCb-20" value="Generar plantilla" style="ellipse;whiteSpace=wrap;html=1;" vertex="1" parent="1">
          <mxGeometry x="370" y="110" width="120" height="80" as="geometry" />
        </mxCell>
        <mxCell id="o7d9FONO0-shs_CGMPCb-21" style="rounded=0;orthogonalLoop=1;jettySize=auto;html=1;exitX=1;exitY=0.5;exitDx=0;exitDy=0;entryX=0;entryY=0.5;entryDx=0;entryDy=0;dashed=1;" edge="1" parent="1" source="o7d9FONO0-shs_CGMPCb-6" target="o7d9FONO0-shs_CGMPCb-20">
          <mxGeometry relative="1" as="geometry">
            <mxPoint x="310" y="159.5" as="sourcePoint" />
            <mxPoint x="490" y="159.5" as="targetPoint" />
          </mxGeometry>
        </mxCell>
        <mxCell id="o7d9FONO0-shs_CGMPCb-22" value="&amp;lt;&amp;lt; include &amp;gt;&amp;gt;" style="edgeLabel;html=1;align=center;verticalAlign=middle;resizable=0;points=[];" vertex="1" connectable="0" parent="o7d9FONO0-shs_CGMPCb-21">
          <mxGeometry x="0.1" y="-1" relative="1" as="geometry">
            <mxPoint as="offset" />
          </mxGeometry>
        </mxCell>
        <mxCell id="o7d9FONO0-shs_CGMPCb-23" value="Ingresar patente salida" style="ellipse;whiteSpace=wrap;html=1;" vertex="1" parent="1">
          <mxGeometry x="370" y="240" width="120" height="80" as="geometry" />
        </mxCell>
        <mxCell id="o7d9FONO0-shs_CGMPCb-24" style="rounded=0;orthogonalLoop=1;jettySize=auto;html=1;exitX=1;exitY=0.5;exitDx=0;exitDy=0;entryX=0;entryY=0.5;entryDx=0;entryDy=0;dashed=1;" edge="1" parent="1" source="o7d9FONO0-shs_CGMPCb-7" target="o7d9FONO0-shs_CGMPCb-23">
          <mxGeometry relative="1" as="geometry">
            <mxPoint x="390" y="310" as="sourcePoint" />
            <mxPoint x="520" y="310" as="targetPoint" />
          </mxGeometry>
        </mxCell>
        <mxCell id="o7d9FONO0-shs_CGMPCb-25" value="&amp;lt;&amp;lt; include &amp;gt;&amp;gt;" style="edgeLabel;html=1;align=center;verticalAlign=middle;resizable=0;points=[];" vertex="1" connectable="0" parent="o7d9FONO0-shs_CGMPCb-24">
          <mxGeometry x="0.1" y="-1" relative="1" as="geometry">
            <mxPoint as="offset" />
          </mxGeometry>
        </mxCell>
        <mxCell id="o7d9FONO0-shs_CGMPCb-26" value="Guardar hora salida" style="ellipse;whiteSpace=wrap;html=1;" vertex="1" parent="1">
          <mxGeometry x="770" y="190" width="120" height="80" as="geometry" />
        </mxCell>
        <mxCell id="o7d9FONO0-shs_CGMPCb-27" value="Actualizar andén" style="ellipse;whiteSpace=wrap;html=1;" vertex="1" parent="1">
          <mxGeometry x="770" y="310" width="120" height="80" as="geometry" />
        </mxCell>
        <mxCell id="o7d9FONO0-shs_CGMPCb-28" style="rounded=0;orthogonalLoop=1;jettySize=auto;html=1;entryX=0.5;entryY=0.5;entryDx=0;entryDy=0;entryPerimeter=0;endArrow=none;endFill=0;" edge="1" parent="1" source="o7d9FONO0-shs_CGMPCb-27" target="o7d9FONO0-shs_CGMPCb-16">
          <mxGeometry relative="1" as="geometry" />
        </mxCell>
        <mxCell id="o7d9FONO0-shs_CGMPCb-30" style="rounded=0;orthogonalLoop=1;jettySize=auto;html=1;exitX=1;exitY=0.5;exitDx=0;exitDy=0;entryX=0;entryY=0.5;entryDx=0;entryDy=0;dashed=1;" edge="1" parent="1" source="o7d9FONO0-shs_CGMPCb-23" target="o7d9FONO0-shs_CGMPCb-26">
          <mxGeometry relative="1" as="geometry">
            <mxPoint x="500" y="320" as="sourcePoint" />
            <mxPoint x="610" y="320" as="targetPoint" />
          </mxGeometry>
        </mxCell>
        <mxCell id="o7d9FONO0-shs_CGMPCb-31" value="&amp;lt;&amp;lt; include &amp;gt;&amp;gt;" style="edgeLabel;html=1;align=center;verticalAlign=middle;resizable=0;points=[];" vertex="1" connectable="0" parent="o7d9FONO0-shs_CGMPCb-30">
          <mxGeometry x="0.1" y="-1" relative="1" as="geometry">
            <mxPoint as="offset" />
          </mxGeometry>
        </mxCell>
        <mxCell id="o7d9FONO0-shs_CGMPCb-34" style="rounded=0;orthogonalLoop=1;jettySize=auto;html=1;exitX=1;exitY=0.5;exitDx=0;exitDy=0;entryX=0;entryY=0.5;entryDx=0;entryDy=0;dashed=1;" edge="1" parent="1" source="o7d9FONO0-shs_CGMPCb-23" target="o7d9FONO0-shs_CGMPCb-27">
          <mxGeometry relative="1" as="geometry">
            <mxPoint x="490" y="390" as="sourcePoint" />
            <mxPoint x="780" y="350" as="targetPoint" />
          </mxGeometry>
        </mxCell>
        <mxCell id="o7d9FONO0-shs_CGMPCb-35" value="&amp;lt;&amp;lt; include &amp;gt;&amp;gt;" style="edgeLabel;html=1;align=center;verticalAlign=middle;resizable=0;points=[];" vertex="1" connectable="0" parent="o7d9FONO0-shs_CGMPCb-34">
          <mxGeometry x="0.1" y="-1" relative="1" as="geometry">
            <mxPoint as="offset" />
          </mxGeometry>
        </mxCell>
        <mxCell id="o7d9FONO0-shs_CGMPCb-36" style="rounded=0;orthogonalLoop=1;jettySize=auto;html=1;exitX=1;exitY=0.5;exitDx=0;exitDy=0;entryX=0.5;entryY=0.5;entryDx=0;entryDy=0;entryPerimeter=0;endArrow=none;endFill=0;" edge="1" parent="1" source="o7d9FONO0-shs_CGMPCb-26" target="o7d9FONO0-shs_CGMPCb-16">
          <mxGeometry relative="1" as="geometry" />
        </mxCell>
        <mxCell id="o7d9FONO0-shs_CGMPCb-37" value="Guardar hora llegada" style="ellipse;whiteSpace=wrap;html=1;" vertex="1" parent="1">
          <mxGeometry x="770" y="440" width="120" height="80" as="geometry" />
        </mxCell>
        <mxCell id="o7d9FONO0-shs_CGMPCb-38" style="rounded=0;orthogonalLoop=1;jettySize=auto;html=1;entryX=0.5;entryY=0.5;entryDx=0;entryDy=0;entryPerimeter=0;endArrow=none;endFill=0;exitX=1;exitY=0.5;exitDx=0;exitDy=0;" edge="1" parent="1" source="o7d9FONO0-shs_CGMPCb-37" target="o7d9FONO0-shs_CGMPCb-16">
          <mxGeometry relative="1" as="geometry">
            <mxPoint x="930" y="458" as="sourcePoint" />
            <mxPoint x="1149" y="402" as="targetPoint" />
          </mxGeometry>
        </mxCell>
        <mxCell id="o7d9FONO0-shs_CGMPCb-39" value="Ingresar patente llegada" style="ellipse;whiteSpace=wrap;html=1;" vertex="1" parent="1">
          <mxGeometry x="370" y="390" width="120" height="80" as="geometry" />
        </mxCell>
        <mxCell id="o7d9FONO0-shs_CGMPCb-40" style="rounded=0;orthogonalLoop=1;jettySize=auto;html=1;exitX=1;exitY=0.5;exitDx=0;exitDy=0;entryX=0;entryY=0.5;entryDx=0;entryDy=0;dashed=1;" edge="1" parent="1" source="o7d9FONO0-shs_CGMPCb-8" target="o7d9FONO0-shs_CGMPCb-39">
          <mxGeometry relative="1" as="geometry">
            <mxPoint x="280" y="370" as="sourcePoint" />
            <mxPoint x="390" y="370" as="targetPoint" />
          </mxGeometry>
        </mxCell>
        <mxCell id="o7d9FONO0-shs_CGMPCb-41" value="&amp;lt;&amp;lt; include &amp;gt;&amp;gt;" style="edgeLabel;html=1;align=center;verticalAlign=middle;resizable=0;points=[];" vertex="1" connectable="0" parent="o7d9FONO0-shs_CGMPCb-40">
          <mxGeometry x="0.1" y="-1" relative="1" as="geometry">
            <mxPoint as="offset" />
          </mxGeometry>
        </mxCell>
        <mxCell id="o7d9FONO0-shs_CGMPCb-42" style="rounded=0;orthogonalLoop=1;jettySize=auto;html=1;exitX=1;exitY=0.5;exitDx=0;exitDy=0;entryX=0;entryY=0.5;entryDx=0;entryDy=0;dashed=1;" edge="1" parent="1" source="o7d9FONO0-shs_CGMPCb-39" target="o7d9FONO0-shs_CGMPCb-27">
          <mxGeometry relative="1" as="geometry">
            <mxPoint x="510" y="440" as="sourcePoint" />
            <mxPoint x="790" y="390" as="targetPoint" />
          </mxGeometry>
        </mxCell>
        <mxCell id="o7d9FONO0-shs_CGMPCb-43" value="&amp;lt;&amp;lt; include &amp;gt;&amp;gt;" style="edgeLabel;html=1;align=center;verticalAlign=middle;resizable=0;points=[];" vertex="1" connectable="0" parent="o7d9FONO0-shs_CGMPCb-42">
          <mxGeometry x="0.1" y="-1" relative="1" as="geometry">
            <mxPoint as="offset" />
          </mxGeometry>
        </mxCell>
        <mxCell id="o7d9FONO0-shs_CGMPCb-44" style="rounded=0;orthogonalLoop=1;jettySize=auto;html=1;exitX=1;exitY=0.5;exitDx=0;exitDy=0;entryX=0;entryY=0.5;entryDx=0;entryDy=0;dashed=1;" edge="1" parent="1" source="o7d9FONO0-shs_CGMPCb-39" target="o7d9FONO0-shs_CGMPCb-37">
          <mxGeometry relative="1" as="geometry">
            <mxPoint x="510" y="440" as="sourcePoint" />
            <mxPoint x="790" y="510" as="targetPoint" />
          </mxGeometry>
        </mxCell>
        <mxCell id="o7d9FONO0-shs_CGMPCb-45" value="&amp;lt;&amp;lt; include &amp;gt;&amp;gt;" style="edgeLabel;html=1;align=center;verticalAlign=middle;resizable=0;points=[];" vertex="1" connectable="0" parent="o7d9FONO0-shs_CGMPCb-44">
          <mxGeometry x="0.1" y="-1" relative="1" as="geometry">
            <mxPoint as="offset" />
          </mxGeometry>
        </mxCell>
        <mxCell id="o7d9FONO0-shs_CGMPCb-46" value="Asignar andén" style="ellipse;whiteSpace=wrap;html=1;" vertex="1" parent="1">
          <mxGeometry x="770" y="570" width="120" height="80" as="geometry" />
        </mxCell>
        <mxCell id="o7d9FONO0-shs_CGMPCb-47" style="rounded=0;orthogonalLoop=1;jettySize=auto;html=1;entryX=0.5;entryY=0.5;entryDx=0;entryDy=0;entryPerimeter=0;endArrow=none;endFill=0;exitX=1;exitY=0.5;exitDx=0;exitDy=0;" edge="1" parent="1" source="o7d9FONO0-shs_CGMPCb-46" target="o7d9FONO0-shs_CGMPCb-16">
          <mxGeometry relative="1" as="geometry">
            <mxPoint x="940" y="575" as="sourcePoint" />
            <mxPoint x="1155" y="445" as="targetPoint" />
          </mxGeometry>
        </mxCell>
        <mxCell id="o7d9FONO0-shs_CGMPCb-48" style="rounded=0;orthogonalLoop=1;jettySize=auto;html=1;exitX=1;exitY=0.5;exitDx=0;exitDy=0;entryX=0;entryY=0.5;entryDx=0;entryDy=0;dashed=1;" edge="1" parent="1" source="o7d9FONO0-shs_CGMPCb-39" target="o7d9FONO0-shs_CGMPCb-46">
          <mxGeometry relative="1" as="geometry">
            <mxPoint x="500" y="550" as="sourcePoint" />
            <mxPoint x="780" y="600" as="targetPoint" />
          </mxGeometry>
        </mxCell>
        <mxCell id="o7d9FONO0-shs_CGMPCb-49" value="&amp;lt;&amp;lt; include &amp;gt;&amp;gt;" style="edgeLabel;html=1;align=center;verticalAlign=middle;resizable=0;points=[];" vertex="1" connectable="0" parent="o7d9FONO0-shs_CGMPCb-48">
          <mxGeometry x="0.1" y="-1" relative="1" as="geometry">
            <mxPoint as="offset" />
          </mxGeometry>
        </mxCell>
      </root>
    </mxGraphModel>
  </diagram>
</mxfile>
